<?xml version="1.0" encoding="UTF-8" standalone="no"?>
<!-- Created with Inkscape (http://www.inkscape.org/) -->

<svg
   version="1.1"
   id="svg1"
   width="854.66669"
   height="1024"
   viewBox="0 0 854.66669 1024"
   xmlns="http://www.w3.org/2000/svg"
   xmlns:svg="http://www.w3.org/2000/svg">
  <defs
     id="defs1" />
  <g
     id="g1">
    <path
       id="path2"
       style="fill:none;stroke:#ffffff;stroke-opacity:1;stroke-width:5;stroke-dasharray:none;stroke-linecap:round;stroke-linejoin:round"
       d="m 331.6595,941.36833 c -3.66201,-3.662 -6.66722,-11.3213 -6.68237,-17.0311 -0.004,-1.54155 1.36195,-4.84155 3.03564,-7.33333 3.68204,-5.48181 8.66356,-6.53798 12.23315,-2.59362 4.645,5.13266 24.29896,2.835 37.87212,-4.42749 2.46492,-1.31888 8.41062,-6.38537 13.21267,-11.25887 8.1089,-8.22954 9.11961,-8.84587 14.185,-8.64994 14.47113,0.55973 27.47006,-3.55812 35.66697,-11.29873 2.6838,-2.53441 5.5338,-4.20372 6.33333,-3.70958 0.79953,0.49414 1.45369,3.78974 1.45369,7.32357 0,3.53383 0.97182,8.74842 2.1596,11.58798 2.56464,6.13117 1.8375,18.80172 -1.4562,25.37433 -2.98858,5.96375 -11.7803,13.49938 -20.54338,17.60828 -6.36102,2.9826 -9.20595,3.4946 -18.82669,3.388 -6.23333,-0.069 -15.65429,-0.5975 -20.93545,-1.1745 -6.52811,-0.7132 -11.65034,-0.5198 -16,0.6042 -13.95024,3.6048 -24.05684,5.3625 -30.83328,5.3625 -6.01899,0 -7.67871,-0.5756 -10.8748,-3.7717 z M 215.94925,900.47697 c -2.39458,-1.04063 -4.67798,-2.73691 -5.07423,-3.76952 -0.81916,-2.1347 3.97495,-17.36972 6.89165,-21.90073 1.66969,-2.5938 3.07843,-3 10.40427,-3 7.65454,0 13.52538,-1.49814 21.59977,-5.51191 3.69009,-1.83434 8.58764,-1.02913 10.29283,1.69225 1.49749,2.38991 -2.23457,12.7245 -7.55231,20.91337 -3.55109,5.46837 -12.47588,10.20442 -22.84002,12.12034 -9.41645,1.74072 -8.36957,1.78221 -13.72196,-0.5438 z m 188.68712,-20.07735 c -1.6517,-1.71339 -1.1265,-13.49668 0.66666,-14.95718 0.91667,-0.7466 6.16667,-2.68529 11.66667,-4.30819 5.5,-1.6229 12.69455,-4.76276 15.98788,-6.97747 3.29333,-2.2147 7.79333,-4.09948 10,-4.1884 3.70289,-0.1492 4.04385,0.22093 4.42379,4.80229 0.23787,2.86818 -0.68685,7.44735 -2.19024,10.84601 -2.22421,5.02819 -3.85282,6.49787 -11.21915,10.1243 -6.43961,3.17022 -11.10872,4.42594 -18.47643,4.96913 -5.42255,0.39977 -10.30918,0.26006 -10.85918,-0.31049 z M 222.43019,861.95994 c -2.16547,-2.60923 -1.33626,-7.61002 2.67785,-16.1497 4.19114,-8.91625 7.33322,-10.55949 18.2509,-9.54479 6.09335,0.56631 10.01736,0.29268 12.28238,-0.85649 7.09306,-3.59869 14.68994,-5.44068 16.20216,-3.92846 3.42352,3.42352 -5.31358,23.26406 -11.26564,25.58246 -15.73088,6.12735 -35.06657,8.60946 -38.14765,4.89698 z m 180.20618,-5.00724 c -0.91667,-0.92362 -1.66667,-4.45473 -1.66667,-7.8469 0,-8.25529 3.93936,-11.74764 19.69629,-17.46129 4.20037,-1.5231 11.98544,-4.8461 17.30015,-7.38442 12.75828,-6.09342 13.67216,-5.47743 10.91909,7.35972 -1.64901,7.68903 -5.82359,11.13155 -22.5822,18.6221 -5.5,2.45832 -10.6,4.96239 -11.33333,5.56459 -2.6037,2.13814 -10.61037,2.88223 -12.33333,1.1462 z M 232.52525,830.91783 c -2.48746,-2.48746 1.62371,-21.12728 5.28897,-23.97986 1.29226,-1.00574 5.51159,-1.29485 12.23083,-0.83806 8.15163,0.55417 12.26236,0.0992 20.01935,-2.21591 7.64075,-2.28038 10.17529,-2.56975 11.66667,-1.33202 4.77019,3.95891 -0.75668,16.77783 -9.18031,21.29263 -10.21866,5.47687 -36.90577,10.19296 -40.02551,7.07322 z M 400.487,827.47339 c -1.03264,-1.65 -2.25497,-6.05828 -2.71629,-9.79618 -1.05597,-8.55597 2.09266,-13.34691 9.5901,-14.59224 10.26399,-1.70486 23.87841,-6.43862 31.27709,-10.8751 10.26391,-6.15456 12.04143,-5.63401 13.48352,3.94865 1.4694,9.76415 -0.14579,12.4091 -11.41489,18.69244 -10.16663,5.66863 -33.23227,15.62243 -36.2014,15.62243 -1.17734,0 -2.9855,-1.35 -4.01813,-3 z M 239.52107,799.00113 c -0.8337,-1.00454 -1.16664,-3.21767 -0.73988,-4.91805 1.35305,-5.39099 6.08206,-15.19483 8.16212,-16.92113 1.10256,-0.91504 7.55954,-2.17447 14.34885,-2.79874 16.79678,-1.54442 24.1553,-3.02254 28.18202,-5.66095 4.39567,-2.88015 11.31227,-2.92452 12.40397,-0.0796 0.84882,2.21198 -7.44959,19.24339 -11.45751,23.51509 -1.43481,1.52924 -7.22006,3.21324 -16.81903,4.89577 -20.49208,3.59192 -32.17279,4.26629 -34.08054,1.96759 z m 157.4442,-3.20268 c -2.21476,-4.13833 -4.75446,-23.76754 -3.26644,-25.24615 0.69898,-0.69455 5.23662,-1.8945 10.08364,-2.66655 9.77157,-1.55644 23.40203,-5.6281 28.92723,-8.64107 7.76114,-4.23226 13.66282,-6.36327 15.58253,-5.6266 1.51032,0.57956 2.01081,2.95562 2.01081,9.54634 0,13.31002 -1.71671,15.5639 -17.71922,23.26377 -7.48777,3.60287 -15.41412,6.97645 -17.61412,7.49686 -2.2,0.5204 -5.1835,1.75667 -6.63001,2.74726 -3.94453,2.70129 -9.6976,2.25929 -11.37442,-0.87386 z m -145.97983,-30.641 c -2.31936,-2.56287 -2.21232,-3.31304 3.28201,-23 10.00831,-35.86123 14.37117,-46.07104 21.18858,-49.5848 2.49982,-1.28843 11.05278,-1.94876 29.64171,-2.28846 33.28904,-0.60833 34.0751,-0.1529 27.08061,15.68996 -18.98269,42.99664 -25.57128,53.83257 -32.73194,53.83257 -1.45861,0 -3.95698,0.69839 -5.55194,1.55199 -4.21006,2.25315 -25.79252,6.35209 -33.71812,6.40374 -5.12322,0.0334 -7.38279,-0.60705 -9.19091,-2.605 z m 141.55059,-3.75994 c -3.33897,-3.68952 -10.87937,-62.21675 -8.75105,-67.92412 0.98206,-2.63352 2.05931,-3.00142 8.81839,-3.01159 4.23481,-0.006 15.19966,-0.90116 24.36633,-1.98841 22.22192,-2.63574 29.85348,-2.58679 32.17008,0.20635 1.43249,1.72717 1.76287,7.59108 1.52119,27 l -0.30873,24.79365 -5.0246,4.36121 c -4.78481,4.15308 -14.99457,9.58734 -18.1941,9.68403 -0.82344,0.0249 -3.89717,1.20452 -6.83051,2.62142 -2.93333,1.4169 -7.13333,2.62288 -9.33333,2.67995 -2.2,0.0571 -6.4,0.9684 -9.33333,2.02517 -6.71128,2.41782 -6.4976,2.42833 -9.10034,-0.44766 z m -163.86637,-78.8476 c -19.96396,-0.66534 -22.57948,-1.02303 -24.96759,-3.41449 -4.35976,-4.36586 -4.84403,-10.27724 -1.18887,-14.51225 l 3.12316,-3.61862 18.66667,1.44989 c 10.26667,0.79744 24.66667,2.4117 32,3.58725 11.19872,1.79518 20.69776,2.00601 59.33334,1.3169 25.3,-0.45126 54.1,-1.46834 64,-2.26017 9.9,-0.79183 45.3,-1.63973 78.66667,-1.88422 33.36666,-0.2445 63.36666,-0.83903 66.66666,-1.32118 3.3,-0.48215 8.7,-0.38544 12,0.21491 5.67047,1.03161 6.02198,1.35189 6.4001,5.83168 1.05375,12.4841 -5.77131,13.74746 -68.4001,12.66128 -37.8119,-0.65578 -49.0701,-0.43296 -59.33333,1.17432 -10.26578,1.60768 -27.072,1.93953 -88.66667,1.75078 -41.8,-0.12809 -86.03502,-0.56733 -98.30004,-0.97608 z m 38.50886,-24.97881 c -0.36595,-0.36595 -11.93075,-0.61901 -25.69956,-0.56236 -23.90369,0.0983 -25.17288,-0.0273 -28.10507,-2.78193 -4.16581,-3.91358 -3.91526,-5.71048 2.19736,-15.75937 2.89752,-4.76339 7.64562,-13.19418 10.55134,-18.73508 2.90571,-5.5409 6.23501,-10.86436 7.39844,-11.82993 1.16344,-0.96556 2.11914,-2.4321 2.1238,-3.25897 0.008,-1.46618 2.36158,-6.22558 20.3027,-41.06053 8.96059,-17.39809 16.50681,-29.10954 18.75661,-29.10954 0.70532,0 6.7536,1.93388 13.44064,4.29752 l 12.15825,4.29752 34,0.53582 c 18.7,0.2947 52.13991,-0.22102 74.31091,-1.14606 31.93066,-1.33223 40.72224,-1.34051 42.28947,-0.0398 1.0882,0.90313 4.10899,6.13042 6.71287,11.6162 6.63838,13.98554 25.64363,36.54465 37.51818,44.53384 1.55729,1.04774 6.60346,4.54265 11.21371,7.76646 4.61025,3.22381 11.11327,6.68338 14.45115,7.68793 11.35503,3.41737 20.17038,15.86189 20.17038,28.47431 0,10.80873 0.84197,10.66997 -64.3096,10.59885 -32.39165,-0.0353 -58.04004,0.50479 -62.35707,1.31322 -4.03333,0.75531 -27.13333,1.68303 -51.33333,2.0616 -24.2,0.37858 -55.50331,0.93073 -69.56291,1.22701 -14.05959,0.29628 -25.86232,0.23927 -26.22827,-0.12668 z m 275.64031,-44.36983 c -6.59616,-1.56228 -23.87172,-10.55519 -29.3138,-15.2595 l -4.97712,-4.30237 22.56811,-22.62432 c 12.41246,-12.44337 26.29371,-27.70572 30.84722,-33.91634 11.45856,-15.62851 11.79935,-15.9549 16.69313,-15.98797 4.64338,-0.0314 14.74856,-4.07316 16.24753,-6.49855 0.50042,-0.80969 1.78101,-1.47217 2.84576,-1.47217 2.0965,0 30.40655,21.94683 41.24005,31.97057 3.66666,3.3926 10.71666,9.34187 15.66666,13.2206 11.32166,8.87146 11.91954,12.30509 3.33334,19.1434 -8.4763,6.75078 -18.38649,12.6714 -25.05693,14.9697 -3.26869,1.12623 -7.14307,2.62643 -8.60974,3.33378 -4.24271,2.04618 -26.95735,9.99258 -39.33333,13.76022 -11.93812,3.63433 -34.12952,5.56279 -42.15088,3.66295 z m -53.3935,-28.39455 c -11.16874,-11.89873 -21.90532,-34.48402 -25.44786,-53.53171 -1.52109,-8.17869 -2.17087,-17.81921 -1.99305,-29.57011 0.26798,-17.70954 1.75043,-24.28007 9.04732,-40.09969 1.06588,-2.31082 1.93796,-4.54354 1.93796,-4.9616 0,-0.41805 2.73452,-5.38533 6.0767,-11.03839 7.30868,-12.36211 16.08681,-23.13183 18.85418,-23.13183 1.10874,0 12.62835,10.65 25.59913,23.66666 12.97078,13.01667 27.82155,27.56667 33.0017,32.33334 l 9.41847,8.66666 0.0502,8.15689 c 0.0276,4.48629 0.71385,9.39684 1.52492,10.91234 3.23221,6.03944 1.8121,11.72032 -4.965,19.86155 -9.87743,11.86561 -29.11673,32.19066 -40.22699,42.49716 -25.30004,23.46975 -25.83999,23.73643 -32.87771,16.23873 z m 160.6912,-43.13444 c -11.99742,-10.70727 -26.91349,-22.8915 -33.14682,-27.07607 -9.75906,-6.55147 -11.26207,-8.06077 -10.8203,-10.86557 0.28217,-1.79149 0.58217,-7.54538 0.66667,-12.78641 0.1211,-7.51175 -0.36286,-10.09935 -2.28598,-12.22242 -2.79678,-3.08757 -1.47581,-7.1295 3.13683,-9.59811 1.44986,-0.77594 2.63611,-2.03801 2.63611,-2.8046 0,-1.71529 7.72481,-13.588 16.3824,-25.17905 8.23152,-11.02063 38.15236,-41.33333 40.799,-41.33333 7.12634,0 31.65469,37.39209 35.86008,54.66667 4.78961,19.67438 5.33036,26.40032 3.07663,38.2677 -0.66837,3.51943 -1.92101,10.89896 -2.78364,16.39896 -3.14976,20.08233 -11.52791,39.9219 -20.41092,48.33334 -7.02177,6.649 -9.02732,5.69189 -33.11006,-15.80111 z m -351.20571,-7.83184 c -12.37487,-2.69379 -18.52875,-6.02154 -19.02163,-10.28608 -0.6526,-5.64649 4.32939,-8.13269 14.6906,-7.33115 44.90345,3.47371 83.92728,3.84577 126.30657,1.20424 17.74153,-1.10585 25.07037,-1.12809 26.33333,-0.0799 2.2287,1.84965 2.28696,12.35371 0.0787,14.18642 -4.60477,3.82162 -132.30854,5.80661 -148.38755,2.30649 z m 37.11727,-23.51657 c -28.58679,-1.08521 -46.7934,-3.366 -55.32491,-6.93069 -5.02046,-2.09769 -6.35337,-5.79084 -6.38547,-17.69252 -0.0261,-9.65622 -8.91469,-39.09686 -14.25873,-47.22727 -6.83776,-10.40297 -21.38321,-24.09886 -33.43943,-31.48631 -5.67409,-3.47681 -11.21652,-7.03818 -12.31652,-7.91416 -1.1,-0.87598 -8.3,-4.79057 -16,-8.69909 -24.30031,-12.33483 -36.91892,-22.61151 -40.60996,-33.07305 -2.59147,-7.34501 -2.59709,-12.59678 -0.0224,-20.91873 6.04553,-19.54023 19.82608,-36.87416 66.70782,-83.90866 31.27911,-31.38104 34.78551,-34.40764 38.71848,-33.42053 1.65029,0.4142 11.17773,4.65695 21.1721,9.42834 17.66734,8.43454 24.70061,13.2842 24.70061,17.03186 0,3.22818 -10.84777,15.82083 -30.1202,34.96508 -20.74849,20.61048 -28.20381,31.21597 -26.00652,36.99528 1.61014,4.23499 11.28349,12.49738 18.23459,15.57488 2.99267,1.32495 10.19267,3.7435 16,5.37454 26.31163,7.38984 28.55436,8.87413 31.47992,20.83411 1.23995,5.06904 2.64261,11.18911 3.11701,13.60015 1.29553,6.58428 13.62272,19.04901 26.03579,26.32629 15.20996,8.91699 26.86328,13.44362 40.59274,15.7679 10.12547,1.71416 13.35383,1.76458 20.66667,0.32274 28.83473,-5.68519 48.35277,-22.7533 64.95372,-56.80064 10.54413,-21.62524 12.9972,-25.33334 16.75916,-25.33334 4.04289,0 12.93572,3.3433 27.55885,10.36086 10.47335,5.0261 14.69959,8.07536 24.99026,18.03066 11.69157,11.31052 19.90387,22.51607 18.34733,25.03461 -0.95531,1.54573 -12.28108,4.68449 -25.94265,7.18961 -14.04791,2.57596 -32.18561,11.20237 -43.14209,20.51866 -4.29482,3.65189 -11.19962,11.6406 -15.344,17.7527 -10.89361,16.06582 -21.95922,45.61186 -23.6371,63.1129 -0.49214,5.13334 -1.32241,10.14194 -1.84503,11.13024 -0.70309,1.32957 -5.77238,1.94868 -19.491,2.38044 -10.19743,0.32095 -24.45436,1.16234 -31.68206,1.86976 -14.46464,1.41576 -22.65142,1.39079 -64.467,-0.19662 z m 241.03839,-3.36363 c -1.51989,-1.93223 -2.76344,-5.24509 -2.76344,-7.36192 0,-9.08081 14.0063,-21.73554 20.68762,-18.69133 2.51772,1.14715 3.28092,2.8504 4.05564,9.05102 l 0.9543,7.63795 -6.74965,6.43871 c -7.84624,7.48478 -12.00663,8.23683 -16.18447,2.92557 z m -35.71566,-55.84691 c -21.61616,-21.85401 -28.38112,-29.4819 -28.38112,-32.00139 0,-5.365 13.65646,-15.09078 28.42431,-20.24308 6.7333,-2.34916 13.04003,-4.29916 14.01495,-4.33333 1.96484,-0.0689 16.95349,-5.73806 24.22741,-9.16356 4.62682,-2.17891 11.95364,-2.8809 50.66667,-4.85443 15.96207,-0.81372 18.52835,-0.64173 22.66667,1.51912 3.63474,1.8979 4.75786,3.37898 5.07909,6.69787 0.36373,3.75797 -1.24025,6.11965 -13.58338,20 -13.27947,14.93331 -15.79407,18.15676 -25.2795,32.40552 -2.19682,3.3 -8.06767,11.43466 -13.04634,18.07702 l -9.05213,12.07702 -8.5171,1.69293 c -4.68441,0.93111 -10.2609,2.8425 -12.39221,4.24753 -2.13131,1.40503 -4.4536,2.55855 -5.16066,2.56338 -0.70705,0.005 -14.05705,-12.90324 -29.66666,-28.6846 z M 386.9697,406.89992 c -21.00632,-4.7064 -42.79916,-17.68309 -52.7379,-31.40314 -5.16414,-7.12888 -8.97501,-19.06338 -7.06044,-22.11115 1.46961,-2.33943 16.11739,-4.71481 20.83735,-3.37912 1.3048,0.36924 5.06341,4.75611 8.35249,9.74861 4.23437,6.42737 7.23956,9.53564 10.29432,10.64742 2.3728,0.86357 6.71418,2.73446 9.64751,4.15753 2.93334,1.42306 6.94428,2.58572 8.9132,2.58369 1.96893,-0.002 5.19701,0.61113 7.1735,1.36259 4.9399,1.87814 17.94616,-0.56748 27.21052,-5.11651 12.22881,-6.00465 21.1264,-16.57069 27.71871,-32.91645 1.77454,-4.4 4.49174,-9.36624 6.03823,-11.03608 2.54293,-2.74576 3.58321,-2.95106 10.87883,-2.14697 9.55655,1.05328 14.06702,2.54518 14.06702,4.65286 0,1.47002 -7.16094,17.47039 -11.57517,25.86352 -6.65239,12.64871 -8.88747,16.28994 -13.31828,21.69715 -5.75829,7.02724 -18.08724,16.39758 -28.50202,21.66231 -10.74265,5.43048 -27.79111,8.0071 -37.93787,5.73374 z m 3.33333,-34.62824 c -6.85119,-1.19414 -19.96299,-6.33618 -23.58413,-9.24896 -3.73225,-3.00216 -3.73832,-3.03282 -1.34313,-6.78256 1.32334,-2.07173 3.23867,-5.61454 4.2563,-7.87292 2.48637,-5.5179 3.63855,-6.27187 16.0043,-10.4731 10.31961,-3.50605 20.90839,-8.78559 39.62262,-19.75575 4.92578,-2.88745 9.52307,-5.04331 10.21621,-4.79079 0.69313,0.25251 3.38475,3.62752 5.98139,7.50001 l 4.72115,7.04089 -5.74804,12.38449 c -6.95359,14.98194 -17.42843,26.25502 -27.31733,29.39905 -6.98127,2.21959 -17.8698,3.46059 -22.80934,2.59964 z m -29.7702,-39.27553 c -7.39644,-3.90248 -9.38856,-9.55311 -8.55475,-24.26553 0.63722,-11.24373 0.53077,-11.83105 -2.50477,-13.82002 -4.38047,-2.87019 -3.98514,-5.85435 1.82972,-13.81162 20.45186,-27.98706 20.99391,-28.62138 24.83522,-29.06228 2.09253,-0.24017 6.69838,0.50983 10.23522,1.66667 4.54967,1.48812 12.20732,2.15432 26.18009,2.27762 10.86221,0.0958 24.24947,0.54585 29.74947,1 l 10.00001,0.82573 0.41342,7.3003 c 0.50445,8.90747 -4.39362,30.8007 -7.88347,35.23733 -2.55679,3.25043 -28.36344,16.7957 -31.99941,16.7957 -1.11142,0 -5.35288,2.0065 -9.42547,4.45889 -4.0726,2.45239 -10.0373,5.80855 -13.2549,7.45814 -3.2176,1.64959 -7.35018,3.83424 -9.18351,4.85479 -4.78784,2.66521 -14.47233,2.23127 -20.43687,-0.91572 z m 29.10354,-61.9632 c 7.64734,-1.31337 12.91666,-4.27541 12.39929,-6.97001 -0.32391,-1.68704 -2.78347,-2.61777 -9.74958,-3.68939 -5.12401,-0.78825 -10.70938,-1.89233 -12.41193,-2.45351 -4.05033,-1.33505 -8.23778,2.35711 -8.23778,7.2634 0,5.02793 4.99801,8.3974 10.66666,7.19107 1.1,-0.23408 4.4,-0.83779 7.33334,-1.34156 z m -67.13329,16.76541 c -3.04336,-2.2046 -5.53338,-5.00466 -5.53338,-6.22235 0,-2.57255 15.8935,-33.19609 21.32832,-41.09533 2.03098,-2.95194 7.51297,-9.45926 12.18219,-14.46072 l 8.48949,-9.09357 17.22558,8.7735 c 11.47689,5.84551 18.81895,8.78935 22,8.82099 2.62593,0.0261 8.37442,0.96355 12.77442,2.08318 4.95374,1.26053 16.6289,2.25941 30.66097,2.62323 l 22.66097,0.58754 1.01277,3.66261 c 1.42978,5.17069 -4.2262,10.22519 -10.20404,9.11891 -2.27187,-0.42045 -14.63067,-1.35551 -27.464,-2.07791 -12.83334,-0.72241 -29.93334,-2.47814 -38,-3.90161 -16.41039,-2.89584 -17.20373,-2.71618 -23.81726,5.39389 -2.00155,2.45447 -6.60615,8.06267 -10.23245,12.46267 -3.62629,4.4 -6.5986,8.47429 -6.60511,9.05399 -0.0167,1.48598 -5.22699,8.81776 -9.91064,13.94601 -5.01819,5.49454 -9.31509,5.57882 -16.56783,0.32497 z M 427.9697,233.0985 c -4.19104,-1.68459 -3.86439,-4.99024 2.24598,-22.72904 2.8853,-8.37617 7.2353,-21.0581 9.66667,-28.18206 2.43138,-7.12396 5.12714,-12.97396 5.99058,-13 6.49973,-0.19603 16.17514,27.25615 18.65548,52.93146 1.16475,12.057 0.70084,12.37226 -18.0553,12.27001 -8.52688,-0.0465 -16.85341,-0.62715 -18.50341,-1.29037 z m -115.20225,-0.60514 c -1.28753,-1.28753 -22.90132,-10.01997 -24.80057,-10.01997 -2.59618,0 -12.52824,-5.20463 -15.99718,-8.38289 -4.03656,-3.69832 -3.77984,-6.76194 1.14079,-13.61379 5.74183,-7.99536 14.29146,-9.72368 23.67767,-4.78647 6.7167,3.53304 16.20069,7.68293 20.18154,8.83081 1.83333,0.52864 5.65574,2.13331 8.49425,3.56594 4.96595,2.50638 5.13348,2.80926 4.43489,8.01766 -1.00689,7.50693 -7.52817,16.25475 -12.49807,16.76526 -2.12314,0.21809 -4.20813,0.0486 -4.63332,-0.37655 z m 94.86892,-2.40634 c -5.79691,-2.92231 -5.84871,-2.66815 9.15914,-44.94697 2.21266,-6.23333 4.39277,-13.62888 4.84468,-16.43454 0.69229,-4.29807 1.59289,-5.42346 5.72015,-7.14794 3.43933,-1.43704 5.89801,-1.68596 8.25393,-0.83563 2.87717,1.03846 3.29986,1.91341 2.96556,6.13851 -0.21442,2.71009 -4.56442,16.6227 -9.66666,30.91692 -5.10224,14.29422 -9.2768,26.5576 -9.2768,27.25196 0,1.09501 -6.94165,6.81165 -8.20583,6.75773 -0.25346,-0.0108 -1.96084,-0.77583 -3.79417,-1.70004 z m -32.06881,-10.784 c -9.78121,-5.03437 -14.05104,-7.95931 -14.33352,-9.81881 -0.57436,-3.78094 12.29879,-16.07975 28.07431,-26.82178 7.15292,-4.87064 15.85292,-10.81622 19.33333,-13.2124 6.28717,-4.32857 6.33055,-4.33701 6.72021,-1.30789 0.42244,3.28397 -1.46842,9.51158 -10.9555,36.08243 -7.54239,21.12428 -8.14314,22.24882 -11.88574,22.24882 -1.66204,0 -9.29093,-3.22667 -16.95309,-7.17037 z m -57.93119,-22.08527 c -9.15852,-3.28899 -16.39289,-7.78128 -17.34086,-10.76805 -0.43583,-1.3732 0.35798,-5.07963 1.76403,-8.23652 1.40604,-3.15689 2.96676,-7.46667 3.46825,-9.57731 0.50149,-2.11063 2.63012,-5.55582 4.73028,-7.65598 3.08228,-3.08229 4.58847,-3.66447 7.81236,-3.01969 2.19663,0.43933 6.11086,0.10011 8.69827,-0.75381 3.91032,-1.29052 5.42903,-1.17786 8.99752,0.66748 3.70753,1.91724 5.00277,1.98588 9.49542,0.50317 4.49801,-1.48448 5.70689,-1.41882 8.92986,0.48503 2.91779,1.72358 4.70878,1.92054 8.24409,0.90663 13.07963,-3.75119 10.6068,1.16952 -11.01466,21.91815 -20.95652,20.11055 -20.98967,20.12579 -33.78456,15.5309 z m 78.77104,-46.2241 c -5.80926,-1.04891 -11.28231,-2.50468 -12.16234,-3.23503 -0.88002,-0.73036 -1.90603,-4.04267 -2.28002,-7.36068 -0.37399,-3.31802 -1.72371,-7.18607 -2.99937,-8.59567 -2.81072,-3.1058 -1.75561,-6.66222 1.97653,-6.66222 1.49757,0 8.56641,0.9489 15.70851,2.10866 8.51147,1.38212 15.28263,1.75977 19.65231,1.09606 3.66667,-0.55692 12.96667,-1.11649 20.66667,-1.24348 9.7563,-0.1609 15.81873,-0.94376 20,-2.58266 9.71892,-3.80945 28.36614,-6.20089 54,-6.92532 13.2,-0.37304 24.44444,-1.10207 24.98764,-1.62006 0.5432,-0.518 0.0261,-2.31468 -1.14924,-3.99263 -3.51476,-5.01803 -30.80495,-27.712354 -38.64539,-32.137214 -12.73642,-7.188 -12.43776,-14.08695 0.81892,-18.91693 13.03782,-4.75024 29.312,-6.43362 62.29443,-6.44366 25.60752,-0.008 31.95933,0.37162 36.66666,2.19022 7.17801,2.77312 12.56198,7.6786 13.4523,12.25676 0.91215,4.69042 -1.30288,16.15072 -3.63059,18.78422 -3.40144,3.84828 -15.47611,28.611324 -14.45099,29.636444 0.55634,0.55633 4.64866,0.49741 9.09405,-0.13094 10.10559,-1.42841 19.08355,0.11676 22.06393,3.79737 1.24584,1.53855 2.682,5.26461 3.19147,8.28014 1.01813,6.02625 -1.50824,10.09493 -6.69318,10.77925 -4.89983,0.64669 -30.36592,-1.82679 -33.4973,-3.25354 -3.86407,-1.76059 -6.64941,0.24795 -7.83604,5.65065 -1.31127,5.97016 -3.43944,6.8328 -17.03953,6.90683 -15.98997,0.087 -18.2938,-1.04583 -18.2938,-8.99559 0,-6.75204 -2.57021,-8.95182 -6.4047,-5.48165 -3.01431,2.72791 -13.99975,4.39045 -44.92864,6.79951 -18.14853,1.4136 -27.98036,2.81848 -34.66666,4.95354 -6.92611,2.21164 -12.2564,2.93809 -20.66667,2.81661 -6.41893,-0.0927 -14.18456,0.66692 -17.90867,1.75185 -7.69668,2.24224 -7.61875,2.24308 -21.32029,-0.23084 z m -80.79882,-5.88137 c -4.72404,-4.72404 -3.49665,-10.56815 3.69444,-17.5907 6.5596,-6.40586 19.48063,-13.04819 25.38205,-13.04819 5.80023,0 17.38489,4.3087 22.15393,8.23975 5.0038,4.12456 7.06858,11.12143 5.45282,18.4779 -1.64508,7.49 -12.20355,8.64567 -15.5866,1.70602 -2.5257,-5.18097 -4.38589,-5.13479 -7.52572,0.18683 -3.20123,5.42568 -5.52986,5.80168 -12.84221,2.07363 -4.40353,-2.24504 -5.51442,-2.37467 -7.28192,-0.84968 -3.8556,3.32658 -10.52562,3.72561 -13.44679,0.80444 z m -21.97223,0.0278 c -1.46666,-0.63025 -4.37666,-1.18807 -6.46666,-1.23962 -5.82118,-0.14356 -12.86667,-7.83594 -12.86667,-14.04803 0,-6.72303 1.82744,-9.5445 6.82988,-10.54499 3.69881,-0.73976 7.40808,-0.3181 23.56055,2.67832 4.16526,0.77269 5.11588,4.03957 2.47592,8.50867 -1.20982,2.04807 -2.19968,5.16805 -2.19968,6.93329 0,3.47374 -4.43514,9.10385 -7.05194,8.95198 -0.8881,-0.0515 -2.81473,-0.60937 -4.2814,-1.23962 z m -73.08524,810.70285 c -2.06355,-0.6515 -4.46355,-1.7228 -5.33333,-2.3808 -0.86979,-0.6579 -4.33198,-2.2112 -7.69376,-3.4517 -5.01753,-1.8515 -7.64451,-2.0258 -14.66666,-0.9735 -4.70489,0.705 -10.65038,1.9167 -13.21221,2.6925 -2.56182,0.7758 -8.89957,1.4106 -14.08387,1.4106 -8.54761,0 -9.75139,-0.3417 -12.91753,-3.6666 -4.8793,-5.1241 -7.1008,-14.621 -4.96817,-21.23905 3.06228,-9.50288 5.25572,-10.36193 13.00769,-5.09433 2.69799,1.83334 6.36345,3.33334 8.14545,3.33334 4.85621,0 13.7484,-5.76603 19.25422,-12.48516 6.88018,-8.39635 13.1708,-12.03403 19.13633,-11.06596 2.6113,0.42376 5.72341,1.62233 6.91579,2.66349 1.19238,1.04116 4.42326,2.68925 7.17974,3.66243 4.41982,1.56043 5.91514,1.46235 12.66009,-0.83032 4.20657,-1.42986 9.45127,-4.16432 11.65489,-6.07658 6.12907,-5.3187 9.62755,-6.87961 10.91856,-4.87151 1.57962,2.45701 1.8284,32.85485 0.31599,38.60965 -1.83994,7.001 -6.70299,12.1842 -15.21145,16.2128 -8.48942,4.0195 -15.74824,5.241 -21.10177,3.5507 z" />
  </g>
</svg>
